# File units = meters
mtllib arena_wall.mtl
g Part 2
v 5.1375 8.4 3.9 
v 0 8.4 3.9 
v 0 8.4 -0.1 
v -5.1375 8.4 -0.1 
v -5.1375 8.4 3.9 
v 5.1375 8.4 -0.1 
v 5.1375 0 -0.1 
v 5.1375 0 3.9 
v 5.15 0 -0.1 
v 5.15 0 3.9 
v 5.15 8.4125 -0.1 
v 5.15 8.4125 3.9 
v -5.15 8.4125 3.9 
v -3.46945e-18 8.4125 3.9 
v -3.46945e-18 8.4125 -0.1 
v -5.15 8.4125 -0.1 
v -5.15 0 3.9 
v -5.1375 0 3.9 
v -5.15 0 -0.1 
v -5.1375 0 -0.1 
vn 0 -1 0 
vn -1 3.17207e-16 0 
vn 1 -3.16735e-16 0 
vn 0 1 0 
vn 0 0 1 
vn 0 0 -1 
vn -1 3.16735e-16 0 
vn 0 -1 0 
vn 1 -1.05736e-16 0 
usemtl 0.600000_0.352941_0.054902_0.000000_0.000000
o mesh0
f 1//1 2//1 3//1 
f 4//1 3//1 2//1 
f 2//1 5//1 4//1 
f 3//1 6//1 1//1 
o mesh1
f 1//2 6//2 7//2 
f 7//2 8//2 1//2 
o mesh2
f 8//1 7//1 9//1 
f 9//1 10//1 8//1 
o mesh3
f 10//3 9//3 11//3 
f 11//3 12//3 10//3 
o mesh4
f 13//4 14//4 15//4 
f 11//4 15//4 14//4 
f 14//4 12//4 11//4 
f 15//4 16//4 13//4 
o mesh5
f 14//5 2//5 1//5 
f 14//5 13//5 5//5 
f 5//5 2//5 14//5 
f 17//5 18//5 5//5 
f 10//5 12//5 1//5 
f 5//5 13//5 17//5 
f 1//5 12//5 14//5 
f 1//5 8//5 10//5 
o mesh6
f 15//6 3//6 4//6 
f 15//6 11//6 6//6 
f 6//6 3//6 15//6 
f 9//6 7//6 6//6 
f 19//6 16//6 4//6 
f 6//6 11//6 9//6 
f 4//6 16//6 15//6 
f 4//6 20//6 19//6 
o mesh7
f 13//7 16//7 19//7 
f 19//7 17//7 13//7 
o mesh8
f 17//8 19//8 20//8 
f 20//8 18//8 17//8 
o mesh9
f 18//9 20//9 4//9 
f 4//9 5//9 18//9 
