# Blender v3.5.1 OBJ File: ''
# www.blender.org
mtllib arena_wall_brick.mtl
o mesh0
v 5.150000 8.412500 3.899999
v 5.150000 1.700000 3.900000
v 5.150000 1.700000 -0.100000
v 5.150000 -5.012500 -0.100000
v 5.150000 -5.012499 3.900001
v 5.150000 8.412500 -0.100001
vn 1.0000 0.0000 0.0000
usemtl 0.600000_0.352941_0.054902_0.000000_0.000000
s 1
f 1//1 2//1 3//1
f 4//1 3//1 2//1
f 2//1 5//1 4//1
f 3//1 6//1 1//1
o mesh1
v -5.150000 8.412500 3.899999
v -0.000000 8.412500 3.899999
v -0.000000 8.412500 -0.100001
v 5.150000 8.412500 -0.100001
v 5.150000 8.412500 3.899999
v -5.150000 8.412500 -0.100001
vn 0.0000 1.0000 0.0000
usemtl 0.600000_0.352941_0.054902_0.000000_0.000000
s 1
f 7//2 8//2 9//2
f 10//2 9//2 8//2
f 8//2 11//2 10//2
f 9//2 12//2 7//2
o mesh2
v -5.150000 8.412500 3.899999
v -5.150000 8.412500 -0.100001
v -5.150000 -0.000000 -0.100000
v -5.150000 0.000000 3.900000
vn -1.0000 -0.0000 0.0000
usemtl 0.600000_0.352941_0.054902_0.000000_0.000000
s 1
f 13//3 14//3 15//3
f 15//3 16//3 13//3
o mesh3
v -5.150000 0.000000 3.900000
v -5.150000 -0.000000 -0.100000
v -5.157240 -2.882180 -0.100000
v -5.157240 -2.882180 3.900000
vn -1.0000 0.0025 -0.0000
usemtl 0.600000_0.352941_0.054902_0.000000_0.000000
s 1
f 17//4 18//4 19//4
f 19//4 20//4 17//4
o mesh4
v -5.157240 -2.882180 3.900000
v -5.157240 -2.882180 -0.100000
v -5.162530 -4.986580 -0.100000
v -5.162530 -4.986579 3.900001
vn -1.0000 0.0025 -0.0000
usemtl 0.600000_0.352941_0.054902_0.000000_0.000000
s 1
f 21//5 22//5 23//5
f 23//5 24//5 21//5
o mesh5
v 5.150000 -5.012499 3.900001
v -0.006266 -4.999539 3.900001
v -0.006266 -4.999540 -0.100000
v -5.162530 -4.986580 -0.100000
v -5.162530 -4.986579 3.900001
v 5.150000 -5.012500 -0.100000
vn -0.0025 -1.0000 0.0000
usemtl 0.600000_0.352941_0.054902_0.000000_0.000000
s 1
f 25//6 26//6 27//6
f 28//6 27//6 26//6
f 26//6 29//6 28//6
f 27//6 30//6 25//6
o mesh6
v -5.137500 0.000000 3.900000
v -5.150000 0.000000 3.900000
v -5.157240 -2.882180 3.900000
v -0.000000 8.412500 3.899999
v 0.000000 8.400000 3.899999
v 5.137500 8.400000 3.899999
v -5.150000 8.412500 3.899999
v -5.137500 8.400000 3.899999
v -5.150000 -4.974120 3.900001
v -0.006266 -4.999539 3.900001
v 5.150000 -5.012499 3.900001
v 5.137500 -4.999969 3.900001
v -0.006250 -4.987040 3.900001
v -5.162530 -4.986579 3.900001
v 5.150000 1.700000 3.900000
v 5.150000 8.412500 3.899999
v 5.137500 1.700020 3.900000
vn -0.0000 0.0000 1.0000
vn -0.0001 0.0000 1.0000
usemtl 0.600000_0.352941_0.054902_0.000000_0.000000
s 1
f 31//7 32//7 33//8
f 34//7 35//7 36//7
f 34//7 37//7 38//7
f 33//8 39//7 31//7
f 32//7 31//7 38//7
f 38//7 35//7 34//7
f 38//7 37//7 32//7
f 40//7 41//7 42//7
f 40//7 43//7 39//7
f 33//8 44//7 39//7
f 39//7 44//7 40//7
f 45//7 46//7 36//7
f 45//7 47//7 42//7
f 42//7 43//7 40//7
f 42//7 41//7 45//7
f 36//7 47//7 45//7
f 36//7 46//7 34//7
o mesh7
v -5.137500 -0.000000 -0.100000
v -5.150000 -4.974120 -0.100000
v -5.157240 -2.882180 -0.100000
v -5.150000 -0.000000 -0.100000
v -5.150000 8.412500 -0.100001
v -5.137500 8.400000 -0.100001
v -5.162530 -4.986580 -0.100000
v -0.000000 8.412500 -0.100001
v 5.150000 8.412500 -0.100001
v 5.137500 8.400000 -0.100001
v 0.000000 8.400000 -0.100001
v 5.150000 1.700000 -0.100000
v 5.150000 -5.012500 -0.100000
v 5.137500 -4.999970 -0.100000
v 5.137500 1.700020 -0.100000
v -0.006266 -4.999540 -0.100000
v -0.006250 -4.987040 -0.100000
vn 0.0000 -0.0000 -1.0000
usemtl 0.600000_0.352941_0.054902_0.000000_0.000000
s 1
f 48//9 49//9 50//9
f 51//9 52//9 53//9
f 49//9 54//9 50//9
f 55//9 56//9 57//9
f 55//9 58//9 53//9
f 50//9 51//9 48//9
f 53//9 52//9 55//9
f 59//9 60//9 61//9
f 59//9 62//9 57//9
f 57//9 58//9 55//9
f 57//9 56//9 59//9
f 63//9 54//9 49//9
f 63//9 64//9 61//9
f 61//9 62//9 59//9
f 61//9 60//9 63//9
f 49//9 64//9 63//9
f 53//9 48//9 51//9
o mesh8
v 5.137500 8.400000 3.899999
v 0.000000 8.400000 3.899999
v 0.000000 8.400000 -0.100001
v -5.137500 8.400000 -0.100001
v -5.137500 8.400000 3.899999
v 5.137500 8.400000 -0.100001
vn 0.0000 -1.0000 0.0000
usemtl 0.600000_0.352941_0.054902_0.000000_0.000000
s 1
f 65//10 66//10 67//10
f 68//10 67//10 66//10
f 66//10 69//10 68//10
f 67//10 70//10 65//10
o mesh9
v 5.137500 -4.999969 3.900001
v 5.137500 1.700020 3.900000
v 5.137500 1.700020 -0.100000
v 5.137500 8.400000 -0.100001
v 5.137500 8.400000 3.899999
v 5.137500 -4.999970 -0.100000
vn -1.0000 0.0000 0.0000
usemtl 0.600000_0.352941_0.054902_0.000000_0.000000
s 1
f 71//11 72//11 73//11
f 74//11 73//11 72//11
f 72//11 75//11 74//11
f 73//11 76//11 71//11
o mesh10
v -5.150000 -4.974120 3.900001
v -0.006250 -4.987040 3.900001
v -0.006250 -4.987040 -0.100000
v 5.137500 -4.999970 -0.100000
v 5.137500 -4.999969 3.900001
v -5.150000 -4.974120 -0.100000
vn 0.0025 1.0000 -0.0000
usemtl 0.600000_0.352941_0.054902_0.000000_0.000000
s 1
f 77//12 78//12 79//12
f 80//12 79//12 78//12
f 78//12 81//12 80//12
f 79//12 82//12 77//12
o mesh11
v -5.150000 -4.974120 3.900001
v -5.150000 -4.974120 -0.100000
v -5.137500 -0.000000 -0.100000
v -5.137500 0.000000 3.900000
vn 1.0000 -0.0025 0.0000
usemtl 0.600000_0.352941_0.054902_0.000000_0.000000
s 1
f 83//13 84//13 85//13
f 85//13 86//13 83//13
o mesh12
v -5.137500 0.000000 3.900000
v -5.137500 -0.000000 -0.100000
v -5.137500 8.400000 -0.100001
v -5.137500 8.400000 3.899999
vn 1.0000 0.0000 0.0000
usemtl 0.600000_0.352941_0.054902_0.000000_0.000000
s 1
f 87//14 88//14 89//14
f 89//14 90//14 87//14
