#
# Bunkspeed OBJ File
# http://www.bunkspeed.com
#
mtllib floor.mtl

##########################
g Root|Part1_VISUALIZE_(Default)|Default|unfinished_american_beech
##########################
v -0.5 8.4003 -0.0127
v -0.5 0.0003 -0.0127
v -0.5 8.4003 0
v -0.5 0.0003 0
v 0.5 8.4003 -0.0127
v -0.5 8.4003 -0.0127
v 0.5 8.4003 0
v -0.5 8.4003 0
v 0.5 0.0003 -0.0127
v 0.5 8.4003 -0.0127
v 0.5 0.0003 0
v 0.5 8.4003 0
v -0.5 0.0003 -0.0127
v 0.5 0.0003 -0.0127
v -0.5 0.0003 0
v 0.5 0.0003 0
v 0.5 8.4003 -0.0127
v 0.5 0.0003 -0.0127
v -0.5 8.4003 -0.0127
v -0.5 0.0003 -0.0127
vt -2.5715 2.422452
vt 5.4285 2.422452
vt -2.5715 2.434548
vt 5.4285 2.434548
vt 0.9523095 2.422452
vt 1.904691 2.422452
vt 0.9523095 2.434548
vt 1.904691 2.434548
vt -2.5715 2.422452
vt 5.4285 2.422452
vt -2.5715 2.434548
vt 5.4285 2.434548
vt 0.9523095 2.422452
vt 1.904691 2.422452
vt 0.9523095 2.434548
vt 1.904691 2.434548
vt 0.9523095 6.4285
vt 0.9523095 -1.5715
vt 1.904691 6.4285
vt 1.904691 -1.5715
vn -1 -3.700743E-16 0
vn -1 -3.700743E-16 0
vn -1 -3.700743E-16 0
vn -1 -3.700743E-16 0
vn 0 1 0
vn 0 1 0
vn 0 1 0
vn 0 1 0
vn 1 0 0
vn 1 0 0
vn 1 0 0
vn 1 0 0
vn 1.83697E-16 -1 0
vn 1.83697E-16 -1 0
vn 1.83697E-16 -1 0
vn 1.83697E-16 -1 0
vn 0 0 -1
vn 0 0 -1
vn 0 0 -1
vn 0 0 -1
usemtl unfinished_american_beech
f 1/1/1 2/2/2 3/3/3
f 2/2/2 4/4/4 3/3/3
f 5/5/5 6/6/6 7/7/7
f 6/6/6 8/8/8 7/7/7
f 9/9/9 10/10/10 11/11/11
f 10/10/10 12/12/12 11/11/11
f 13/13/13 14/14/14 15/15/15
f 14/14/14 16/16/16 15/15/15
f 17/17/17 18/18/18 19/19/19
f 18/18/18 20/20/20 19/19/19
##########################


##########################
g Root|Part1_VISUALIZE_(Default)|Default|laminate2_2d
##########################
v 0.5 0.0003 0
v 0.5 8.4003 0
v -0.5 0.0003 0
v -0.5 8.4003 0
vt -0.8916029 0.666675
vt 1.908537 0.666675
vt -0.8916029 0.333325
vt 1.908537 0.333325
vn 0 0 1
vn 0 0 1
vn 0 0 1
vn 0 0 1
usemtl laminate2_2d
f 21/21/21 22/22/22 23/23/23
f 22/22/22 24/24/24 23/23/23
##########################

