# Blender 3.5.1
# www.blender.org
mtllib lanefloor.mtl
o mesh0
v 0.000000 0.012700 -0.500000
v 0.000000 0.000000 -0.500000
v 0.000000 0.000000 0.500000
v 0.000000 0.012700 0.500000
vn -1.0000 -0.0000 -0.0000
s 0
usemtl Material.001
f 1//1 2//1 3//1
f 3//1 4//1 1//1
o mesh1
v 0.000000 0.000000 0.500000
v 0.000000 0.012700 0.500000
v 8.400000 0.000000 0.500000
v 8.400000 0.012700 0.500000
vn -0.0000 -0.0000 1.0000
s 0
usemtl Material.001
f 6//2 5//2 7//2
f 7//2 8//2 6//2
o mesh2
v 8.400000 0.000000 0.500000
v 8.400000 0.012700 0.500000
v 8.400000 0.000000 -0.500000
v 8.400000 0.012700 -0.500000
vn 1.0000 -0.0000 -0.0000
s 0
usemtl Material.001
f 10//3 9//3 11//3
f 11//3 12//3 10//3
o mesh3
v 0.000000 0.012700 -0.500000
v 0.000000 0.000000 -0.500000
v 8.400000 0.000000 -0.500000
v 8.400000 0.012700 -0.500000
vn -0.0000 -0.0000 -1.0000
s 0
usemtl Material.001
f 16//4 15//4 14//4
f 14//4 13//4 16//4
o mesh4
v 0.000000 0.012700 -0.500000
v 0.000000 0.012700 0.500000
v 8.400000 0.012700 0.500000
v 8.400000 0.012700 -0.500000
vn -0.0000 1.0000 -0.0000
s 0
usemtl Material.001
f 20//5 17//5 18//5
f 18//5 19//5 20//5
o mesh5
v 0.000000 0.000000 -0.500000
v 0.000000 0.000000 0.500000
v 8.400000 0.000000 0.500000
v 8.400000 0.000000 -0.500000
vn -0.0000 -1.0000 -0.0000
s 0
usemtl Material.001
f 23//6 22//6 21//6
f 21//6 24//6 23//6
