# Blender 3.5.1
# www.blender.org
mtllib with_textures.mtl
o mesh0.002
v -5.150000 -3.899999 8.412500
v -5.150000 0.100001 8.412500
v -5.150000 0.100000 0.000016
v -5.150000 -3.900000 0.000016
vn -1.0000 -0.0000 -0.0000
s 1
usemtl 0.600000_0.352941_0.054902_0.000000_0.001
f 1//1 2//1 3//1
f 3//1 4//1 1//1
o mesh1.002
v -5.150000 -3.900000 0.000016
v -5.150000 0.100000 0.000016
v -5.162530 0.100000 -4.986580
v -5.162530 -3.900001 -4.986579
vn -1.0000 -0.0000 0.0025
s 1
usemtl 0.600000_0.352941_0.054902_0.000000_0.001
f 5//2 6//2 7//2
f 7//2 8//2 5//2
o mesh2.002
v 5.150000 -3.900001 -5.012499
v -0.006266 -3.900001 -4.999539
v -0.006266 0.100000 -4.999540
v -5.162530 0.100000 -4.986580
v -5.162530 -3.900001 -4.986579
v 5.150000 0.100000 -5.012500
vn -0.0025 -0.0000 -1.0000
s 1
usemtl 0.600000_0.352941_0.054902_0.000000_0.001
f 9//3 10//3 11//3
f 12//3 11//3 10//3
f 10//3 13//3 12//3
f 11//3 14//3 9//3
o mesh3.002
v 5.150000 -3.899999 8.412500
v 5.150000 -3.900000 1.700000
v 5.150000 0.100000 1.700000
v 5.150000 0.100000 -5.012500
v 5.150000 -3.900001 -5.012499
v 5.150000 0.100001 8.412500
vn 1.0000 -0.0000 -0.0000
s 1
usemtl Material.004
f 15//4 16//4 17//4
f 18//4 17//4 16//4
f 16//4 19//4 18//4
f 17//4 20//4 15//4
o mesh4.002
v -5.150000 -3.899999 8.412500
v -0.000000 -3.899999 8.412500
v -0.000000 0.100001 8.412500
v 5.150000 0.100001 8.412500
v 5.150000 -3.899999 8.412500
v -5.150000 0.100001 8.412500
vn -0.0000 -0.0000 1.0000
s 1
usemtl Material.001
f 21//5 22//5 23//5
f 24//5 23//5 22//5
f 22//5 25//5 24//5
f 23//5 26//5 21//5
o mesh5.002
v -5.137500 -3.900001 -4.974150
v -5.137500 -3.900000 1.712930
v -5.150000 -3.900000 0.000016
v -5.150000 -3.899999 8.412500
v -0.006266 -3.900001 -4.999539
v 5.150000 -3.900001 -5.012499
v 5.137500 -3.900001 -4.999969
v 0.000000 -3.900001 -4.987060
v -0.000000 -3.899999 8.412500
v 0.000000 -3.899999 8.400000
v 5.137500 -3.899999 8.400000
v -5.137500 -3.899999 8.400000
v -5.162530 -3.900001 -4.986579
v 5.150000 -3.900000 1.700000
v 5.150000 -3.899999 8.412500
v 5.137500 -3.900000 1.700020
vn -0.0000 -1.0000 -0.0000
s 1
usemtl 0.600000_0.352941_0.054902_0.000000_0.001
f 27//6 28//6 29//6
f 30//6 29//6 28//6
f 31//6 32//6 33//6
f 31//6 34//6 27//6
f 35//6 36//6 37//6
f 35//6 30//6 38//6
f 28//6 38//6 30//6
f 27//6 39//6 31//6
f 38//6 36//6 35//6
f 33//6 34//6 31//6
f 40//6 41//6 37//6
f 40//6 42//6 33//6
f 29//6 39//6 27//6
f 33//6 32//6 40//6
f 37//6 42//6 40//6
f 37//6 41//6 35//6
o mesh6.002
v -0.000000 0.100001 8.412500
v 0.000000 0.100001 8.400000
v -5.137500 0.100001 8.400000
v 5.150000 0.100001 8.412500
v 5.137500 0.100001 8.400000
v 5.150000 0.100000 1.700000
v 5.150000 0.100000 -5.012500
v 5.137500 0.100000 -4.999970
v 5.137500 0.100000 1.700020
v -0.006266 0.100000 -4.999540
v -5.162530 0.100000 -4.986580
v -5.137500 0.100000 -4.974150
v 0.000000 0.100000 -4.987060
v -5.150000 0.100001 8.412500
v -5.137500 0.100000 1.712930
v -5.150000 0.100000 0.000016
vn -0.0000 1.0000 -0.0000
s 1
usemtl 0.600000_0.352941_0.054902_0.000000_0.001
f 43//7 44//7 45//7
f 43//7 46//7 47//7
f 48//7 49//7 50//7
f 48//7 51//7 47//7
f 52//7 53//7 54//7
f 52//7 55//7 50//7
f 56//7 45//7 57//7
f 54//7 53//7 58//7
f 47//7 44//7 43//7
f 47//7 46//7 48//7
f 50//7 49//7 52//7
f 58//7 57//7 54//7
f 50//7 51//7 48//7
f 57//7 58//7 56//7
f 54//7 55//7 52//7
f 45//7 56//7 43//7
o mesh7.002
v 5.137500 -3.899999 8.400000
v 0.000000 -3.899999 8.400000
v 0.000000 0.100001 8.400000
v -5.137500 0.100001 8.400000
v -5.137500 -3.899999 8.400000
v 5.137500 0.100001 8.400000
vn -0.0000 -0.0000 -1.0000
s 1
usemtl Material.001
f 59//8 60//8 61//8
f 62//8 61//8 60//8
f 60//8 63//8 62//8
f 61//8 64//8 59//8
o mesh8.002
v 5.137500 -3.900001 -4.999969
v 5.137500 -3.900000 1.700020
v 5.137500 0.100000 1.700020
v 5.137500 0.100001 8.400000
v 5.137500 -3.899999 8.400000
v 5.137500 0.100000 -4.999970
vn -1.0000 -0.0000 -0.0000
s 1
usemtl Steel_-_Satin
f 65//9 66//9 67//9
f 68//9 67//9 66//9
f 66//9 69//9 68//9
f 67//9 70//9 65//9
o mesh9.002
v -5.137500 -3.900001 -4.974150
v 0.000000 -3.900001 -4.987060
v 0.000000 0.100000 -4.987060
v 5.137500 0.100000 -4.999970
v 5.137500 -3.900001 -4.999969
v -5.137500 0.100000 -4.974150
vn 0.0025 -0.0000 1.0000
s 1
usemtl Material.004
f 71//10 72//10 73//10
f 74//10 73//10 72//10
f 72//10 75//10 74//10
f 73//10 76//10 71//10
o mesh10.002
v -5.137500 -3.899999 8.400000
v -5.137500 -3.900000 1.712930
v -5.137500 0.100000 1.712930
v -5.137500 0.100000 -4.974150
v -5.137500 -3.900001 -4.974150
v -5.137500 0.100001 8.400000
vn 1.0000 -0.0000 -0.0000
s 1
usemtl Material.003
f 77//11 78//11 79//11
f 80//11 79//11 78//11
f 78//11 81//11 80//11
f 79//11 82//11 77//11
